<svg xmlns="http://www.w3.org/2000/svg" width="1600" height="512" viewBox="0 0 1600 512">
  <defs>
    <linearGradient id="flow" x1="0" y1="0" x2="1" y2="1">
      <stop offset="0" stop-color="#7dcfff"/>
      <stop offset="1" stop-color="#bb9af7"/>
    </linearGradient>
  </defs>
  <rect width="1600" height="512" rx="52" fill="#1a1b26"/>
  <g transform="translate(64 32) scale(.4375)">
    <path d="M414 198c-108 0-184 83-184 191v246c0 108 76 191 184 191s184-83 184-191V389c0-108-76-191-184-191Z" fill="none" stroke="url(#flow)" stroke-width="30" stroke-linecap="round" stroke-linejoin="round"/>
    <path d="M414 264v74" fill="none" stroke="url(#flow)" stroke-width="30" stroke-linecap="round"/>
    <path d="M598 430c91 0 111-92 202-92 43 0 70 23 96 54M598 521c99 0 123 78 212 78 38 0 66-14 91-37" fill="none" stroke="url(#flow)" stroke-width="27" stroke-linecap="round"/>
  </g>
  <text x="515" y="324" fill="#f3f4f8" font-family="Inter, Manrope, 'Avenir Next', 'Century Gothic', sans-serif" font-size="212" font-weight="600" letter-spacing="-10">hymos</text>
</svg>
